<svg width="20" height="20" viewBox="0 0 20 20" fill="none" xmlns="http://www.w3.org/2000/svg">
<path d="M8.02395 0V2.49688H5.02994C2.31537 2.49688 0.0399202 3.9201 0.0399202 5.61798V6.86642C0.0399202 8.56429 1.79641 9.96255 4.39122 10.387L14.6108 12.035C15.1697 12.1348 15.9681 12.7591 15.9681 13.1336V14.382C15.9681 14.7316 15.5289 15.0062 14.9701 15.0062H4.99002C4.51098 15.0062 4.1517 14.9064 3.99202 14.8564V12.5094H0V15.0062C0 15.8552 0.798403 16.5793 1.75649 16.9538C2.67465 17.3533 3.83234 17.5031 4.99002 17.5031H7.98403V20H11.976V17.5031H14.9701C17.7246 17.5031 19.9601 16.1049 19.9601 14.382V13.1336C19.9601 11.4357 18.2036 10.0375 15.6088 9.61298L5.38922 7.96504C4.83034 7.86517 4.03194 7.24095 4.03194 6.86642V5.61798C4.03194 5.26841 4.47106 4.99376 5.02994 4.99376H15.01C15.4491 4.99376 15.8483 5.09363 16.008 5.14357V7.49064H20V4.99376C20 4.14482 19.2016 3.42072 18.2435 3.04619C17.3253 2.64669 16.1677 2.49688 15.01 2.49688H12.016V0L8.02395 0Z" fill="#69666D"/>
</svg>
