<svg width="20" height="20" viewBox="0 0 20 20" fill="none" xmlns="http://www.w3.org/2000/svg">
<path d="M13.75 0C12.475 0 11.375 0.873908 10.7 2.19725C11.825 3.54557 12.5 5.39326 12.5 7.51561C12.5 8.2397 12.425 8.88889 12.275 9.53808C12.75 9.81273 13.225 10.0125 13.75 10.0125C15.825 10.0125 17.5 7.76529 17.5 5.01873C17.5 2.27216 15.825 0.0249688 13.75 0.0249688V0ZM6.25 2.49688C4.175 2.49688 2.5 4.74407 2.5 7.49064C2.5 10.2372 4.175 12.4844 6.25 12.4844C8.325 12.4844 10 10.2372 10 7.49064C10 4.74407 8.325 2.49688 6.25 2.49688ZM18.125 10.387C17.05 11.6604 15.575 12.4345 13.9 12.4844C14.575 13.4332 15 14.5818 15 15.8302V17.4782H20V13.3333C20 12.035 19.225 10.9114 18.125 10.362V10.387ZM1.875 12.8839C0.775 13.4332 0 14.5568 0 15.8552V20H12.5V15.8552C12.5 14.5568 11.725 13.4332 10.625 12.8839C9.5 14.2072 7.975 14.9813 6.25 14.9813C4.525 14.9813 3 14.1823 1.875 12.8839Z" fill="#69666D"/>
</svg>
