<svg width="25" height="23" viewBox="0 0 25 23" fill="none" xmlns="http://www.w3.org/2000/svg">
<path d="M1.00381 3.25C1.00381 2.38805 1.34622 1.5614 1.95571 0.951903C2.5652 0.34241 3.39185 0 4.25381 0H21.7508C22.6128 0 23.4394 0.34241 24.0489 0.951903C24.6584 1.5614 25.0008 2.38805 25.0008 3.25V16.75C25.0008 17.612 24.6584 18.4386 24.0489 19.0481C23.4394 19.6576 22.6128 20 21.7508 20H13.4748L11.9748 18.5H21.7508C22.2149 18.5 22.6601 18.3156 22.9882 17.9874C23.3164 17.6592 23.5008 17.2141 23.5008 16.75V3.25C23.5008 2.78587 23.3164 2.34075 22.9882 2.01256C22.6601 1.68437 22.2149 1.5 21.7508 1.5H4.25381C3.78968 1.5 3.34456 1.68437 3.01637 2.01256C2.68818 2.34075 2.50381 2.78587 2.50381 3.25V8.73C1.95381 9.017 1.44881 9.38 1.00381 9.805V3.25ZM10.6238 10.5C10.1614 9.90845 9.60055 9.40103 8.96581 9H19.2498C19.4487 9 19.6395 9.07902 19.7801 9.21967C19.9208 9.36032 19.9998 9.55109 19.9998 9.75C19.9998 9.94891 19.9208 10.1397 19.7801 10.2803C19.6395 10.421 19.4487 10.5 19.2498 10.5H10.6238ZM11.9998 14.5H17.2498C17.4487 14.5 17.6395 14.421 17.7801 14.2803C17.9208 14.1397 17.9998 13.9489 17.9998 13.75C17.9998 13.5511 17.9208 13.3603 17.7801 13.2197C17.6395 13.079 17.4487 13 17.2498 13H11.8258C11.9398 13.482 11.9998 13.984 11.9998 14.5ZM5.99981 5.75C5.99981 5.55109 6.07882 5.36032 6.21948 5.21967C6.36013 5.07902 6.55089 5 6.74981 5H14.2498C14.4487 5 14.6395 5.07902 14.7801 5.21967C14.9208 5.36032 14.9998 5.55109 14.9998 5.75C14.9998 5.94891 14.9208 6.13968 14.7801 6.28033C14.6395 6.42098 14.4487 6.5 14.2498 6.5H6.74981C6.55089 6.5 6.36013 6.42098 6.21948 6.28033C6.07882 6.13968 5.99981 5.94891 5.99981 5.75ZM9.88281 17.823C10.7248 16.7124 11.1138 15.3236 10.9711 13.9373C10.8285 12.5509 10.1649 11.2704 9.11439 10.3546C8.06391 9.43871 6.70492 8.95579 5.31207 9.00341C3.91922 9.05103 2.59639 9.62564 1.61092 10.6111C0.625446 11.5966 0.0508353 12.9194 0.00321465 14.3123C-0.044406 15.7051 0.438515 17.0641 1.35438 18.1146C2.27024 19.1651 3.55074 19.8287 4.93709 19.9713C6.32343 20.114 7.71223 19.725 8.82281 18.883L11.7198 21.78C11.7885 21.8537 11.8713 21.9128 11.9633 21.9538C12.0553 21.9948 12.1546 22.0168 12.2553 22.0186C12.356 22.0204 12.456 22.0018 12.5494 21.9641C12.6428 21.9264 12.7276 21.8703 12.7988 21.799C12.8701 21.7278 12.9262 21.643 12.9639 21.5496C13.0017 21.4562 13.0202 21.3562 13.0184 21.2555C13.0166 21.1548 12.9946 21.0555 12.9536 20.9635C12.9126 20.8715 12.8535 20.7887 12.7798 20.72L9.88281 17.823ZM9.49981 14.5C9.49981 15.5609 9.07838 16.5783 8.32823 17.3284C7.57809 18.0786 6.56067 18.5 5.49981 18.5C4.43894 18.5 3.42153 18.0786 2.67138 17.3284C1.92123 16.5783 1.49981 15.5609 1.49981 14.5C1.49981 13.4391 1.92123 12.4217 2.67138 11.6716C3.42153 10.9214 4.43894 10.5 5.49981 10.5C6.56067 10.5 7.57809 10.9214 8.32823 11.6716C9.07838 12.4217 9.49981 13.4391 9.49981 14.5Z" fill="#69666D"/>
</svg>
